<?xml version="1.0" encoding="UTF-8"?>
<!-- Generator: visioncortex VTracer 0.6.2 -->
<svg version="1.1" xmlns="http://www.w3.org/2000/svg" width="1280" height="1280">
<path d="M0 0 C422.4 0 844.8 0 1280 0 C1280 422.4 1280 844.8 1280 1280 C857.6 1280 435.2 1280 0 1280 C0 857.6 0 435.2 0 0 Z " fill="#FCFCFC" transform="translate(0,0)"/>
<path d="M0 0 C0.90606355 -0.00260775 1.81212711 -0.00521549 2.74564713 -0.00790226 C4.23294389 -0.00455618 4.23294389 -0.00455618 5.75028706 -0.0011425 C6.8065557 -0.00270249 7.86282434 -0.00426248 8.95110112 -0.00586975 C12.50179699 -0.00986862 16.05245034 -0.0066944 19.60314655 -0.00355339 C22.1439539 -0.0049079 24.68476104 -0.00668811 27.22556782 -0.00886345 C33.41635588 -0.01295653 39.6071281 -0.01234845 45.79791638 -0.00945081 C50.82689479 -0.00719418 55.85586981 -0.00688538 60.88484859 -0.00797462 C61.95766737 -0.00820447 61.95766737 -0.00820447 63.05215925 -0.00843897 C64.50497339 -0.00875868 65.95778752 -0.0090829 67.41060165 -0.00941156 C81.03643914 -0.01226379 94.66226991 -0.00898303 108.2881063 -0.00361119 C119.99077933 0.00085949 131.69344245 0.00007825 143.3961153 -0.00452995 C156.97721546 -0.0098753 170.55830973 -0.01199215 184.13941079 -0.00891769 C185.58602035 -0.00859913 187.03262991 -0.00828476 188.47923946 -0.00797462 C189.19105925 -0.00782035 189.90287904 -0.00766607 190.63626912 -0.00750712 C195.66328194 -0.00664206 200.69029103 -0.00810455 205.71730328 -0.01045418 C212.47481432 -0.01354316 219.23230364 -0.01136033 225.9898138 -0.00555992 C228.47757276 -0.00423157 230.96533328 -0.0046277 233.45309162 -0.00682259 C236.83318442 -0.00953106 240.21321581 -0.00615673 243.59330463 -0.0011425 C244.59152797 -0.00337322 245.58975131 -0.00560395 246.61822385 -0.00790226 C247.51646416 -0.00529452 248.41470447 -0.00268677 249.34016418 0 C250.12135894 0.00016235 250.90255369 0.0003247 251.707421 0.00049198 C253.48132038 0.12584114 253.48132038 0.12584114 254.48132038 1.12584114 C254.62723713 2.90749212 254.70865513 4.69450687 254.76257038 6.48130989 C254.79995319 7.57894661 254.83733601 8.67658333 254.87585163 9.80748177 C254.91065632 10.96441536 254.94546101 12.12134895 254.98132038 13.31334114 C255.05060061 15.57777824 255.12340748 17.84211071 255.20007038 20.10630989 C255.23036335 21.11588753 255.26065632 22.12546516 255.29186726 23.16563606 C255.4157647 26.08213746 255.4157647 26.08213746 255.98529613 28.73313314 C256.60514326 32.97276518 256.61883568 37.09103959 256.60716152 41.36937428 C256.60861496 42.29583379 256.6100684 43.2222933 256.61156589 44.17682734 C256.61522572 47.29247267 256.61173946 50.40806907 256.60830402 53.52371407 C256.60945586 55.77574209 256.61104381 58.02776993 256.61303127 60.27979738 C256.61721633 66.47762713 256.61513754 72.67544153 256.61204505 78.87327135 C256.61001943 84.86863132 256.61267772 90.86398871 256.61519242 96.85934809 C256.62046186 109.88384626 256.62000004 122.90833952 256.6171135 135.93283816 C256.61459812 147.33889677 256.61394115 158.74495359 256.61513615 170.15101242 C256.61525072 171.28583476 256.61525072 171.28583476 256.61536762 172.44358281 C256.61567896 175.5147885 256.61599736 178.5859942 256.61632738 181.6571999 C256.61938794 210.48323745 256.61661118 239.30927189 256.61123048 268.13530896 C256.60649097 293.72061498 256.60690408 319.30591602 256.61169147 344.891222 C256.61705374 373.64485622 256.61916464 402.39848767 256.61607921 431.15212232 C256.61575851 434.22176985 256.61544567 437.29141738 256.61513615 440.36106491 C256.61505707 441.11687133 256.61497799 441.87267776 256.61489652 442.65138741 C256.61376157 454.038591 256.61508473 465.42579259 256.6176157 476.81299591 C256.62048297 489.77781264 256.61974343 502.74262371 256.61433496 515.70743974 C256.61166769 522.31828255 256.61066401 528.92911751 256.61398411 535.53996086 C256.61698242 541.60209139 256.61529581 547.66420259 256.61000656 553.72633139 C256.6088973 555.90951717 256.60944007 558.09270461 256.61188234 560.2758893 C256.62528427 573.26106922 256.31131265 586.1660005 255.48132038 599.12584114 C255.15132038 598.46584114 254.82132038 597.80584114 254.48132038 597.12584114 C253.82132038 597.12584114 253.16132038 597.12584114 252.48132038 597.12584114 C251.64283234 595.67046547 250.81068104 594.21143741 249.98132038 592.75084114 C249.51725788 591.93873177 249.05319538 591.12662239 248.57507038 590.28990364 C247.48132038 588.12584114 247.48132038 588.12584114 247.48132038 586.12584114 C246.82132038 586.12584114 246.16132038 586.12584114 245.48132038 586.12584114 C244.98503132 585.23123177 244.48874226 584.33662239 243.97741413 583.41490364 C239.32860173 575.11090053 234.2852571 567.32864491 228.66491413 559.64146614 C225.14651789 554.74762775 222.30722486 549.90795343 219.71178913 544.47349739 C218.54464517 542.24666082 217.28442547 540.40844431 215.73132038 538.43834114 C212.89552599 534.8357248 210.55116638 531.00908786 208.23132038 527.06334114 C204.36240348 520.4986522 200.22991535 514.15891936 195.97350788 507.84068489 C193.47480557 504.12980866 191.02934345 500.38649045 188.60632038 496.62584114 C187.90764851 495.54302864 187.20897663 494.46021614 186.48913288 493.34459114 C185.03296915 491.01019636 183.67472156 488.68715455 182.34850788 486.28209114 C180.83824052 483.07842406 180.83824052 483.07842406 178.48132038 482.12584114 C178.08944538 481.15646614 177.69757038 480.18709114 177.29382038 479.18834114 C176.00053674 476.00338889 174.36928321 473.4105172 172.35632038 470.62584114 C168.88869264 465.82394649 165.84187467 460.85043257 162.85387897 455.74302864 C162.50277058 455.1461927 162.15166218 454.54935677 161.78991413 453.93443489 C161.45093245 453.35126711 161.11195077 452.76809934 160.76269692 452.16725981 C159.51224541 450.09620453 159.51224541 450.09620453 157.96983606 448.19887388 C153.208847 441.96727448 152.62576128 437.05957314 152.72855854 429.35792732 C152.720054 428.20079243 152.71154947 427.04365754 152.70278722 425.85145795 C152.68529098 422.66185599 152.69440486 419.47364546 152.71504271 416.28410459 C152.73074864 412.83625815 152.7116799 409.38857815 152.69689655 405.94075203 C152.67598211 399.97396973 152.67674351 394.00751045 152.69230938 388.04071617 C152.71470342 379.41063795 152.70298004 370.78086583 152.68287543 362.15079419 C152.65107182 348.14326046 152.6451802 334.13584343 152.65636921 320.12828255 C152.66716013 306.53255691 152.66820546 292.93689746 152.65441608 279.34117317 C152.65357083 278.50290114 152.65272558 277.66462911 152.65185472 276.80095489 C152.6432516 268.46746431 152.63303581 260.13397593 152.62217986 251.800488 C152.61796083 248.56145357 152.61381405 245.32241904 152.6097038 242.08338447 C152.60766733 240.48538024 152.60560017 238.88737604 152.60350183 237.28937189 C152.59032797 227.11619958 152.58596175 216.94307423 152.59120786 206.76989484 C152.59377807 201.64354442 152.5931469 196.51719605 152.59157278 191.39084537 C152.59075097 187.98795483 152.59174897 184.58508627 152.59715176 181.18219948 C152.60226873 177.49873534 152.60142517 173.81531895 152.59916401 170.1318531 C152.60383593 168.50829838 152.60383593 168.50829838 152.60860223 166.85194457 C152.60594085 165.37783395 152.60594085 165.37783395 152.60322571 163.87394333 C152.6038201 163.02331208 152.6044145 162.17268083 152.6050269 161.29627287 C152.56590683 158.94338121 152.56590683 158.94338121 151.48132038 156.12584114 C117.18704813 156.10295631 82.89277762 156.08533351 48.59849938 156.07477581 C44.55048788 156.07352509 40.50247639 156.07223077 36.45446491 156.0709095 C35.64857279 156.07064719 34.84268066 156.07038488 34.01236756 156.07011462 C20.9605017 156.06576236 7.90864024 156.05787724 -5.143223 156.04868834 C-18.53389865 156.03933949 -31.92457198 156.03378291 -45.31525075 156.03175265 C-53.57915588 156.03037999 -61.84304856 156.02604324 -70.10694985 156.01792467 C-75.77247295 156.01264204 -81.4379896 156.01104031 -87.10351498 156.01233976 C-90.37304824 156.01298076 -93.64255513 156.01144722 -96.91208553 156.00663567 C-100.45704395 156.00167371 -104.00194877 156.00285218 -107.54690838 156.00558662 C-109.09652687 156.00121736 -109.09652687 156.00121736 -110.67745078 155.99675983 C-114.58838984 156.00493534 -118.2215083 156.07609594 -122.08722782 156.7232008 C-122.88960691 156.85607211 -123.69198601 156.98894342 -124.51867962 157.12584114 C-126.39367962 155.68834114 -126.39367962 155.68834114 -127.51867962 154.12584114 C-126.40492962 153.32146614 -126.40492962 153.32146614 -125.26867962 152.50084114 C-122.28284552 149.92216624 -120.64683071 147.44325314 -118.51867962 144.12584114 C-117.4070497 142.65729083 -116.2808347 141.19971637 -115.14367962 139.75084114 C-114.54555462 138.98771614 -113.94742962 138.22459114 -113.33117962 137.43834114 C-112.73305462 136.67521614 -112.13492962 135.91209114 -111.51867962 135.12584114 C-110.38790148 133.67198354 -109.2625033 132.21391827 -108.14367962 130.75084114 C-107.66157024 130.12435677 -107.17946087 129.49787239 -106.68274212 128.85240364 C-105.33379724 127.01808295 -105.33379724 127.01808295 -104.51867962 124.12584114 C-102.87741078 122.43415791 -101.20709837 120.77046805 -99.51867962 119.12584114 C-96.43341878 115.52818716 -93.47923562 111.82653614 -90.51867962 108.12584114 C-89.89477337 107.34595833 -89.27086712 106.56607552 -88.62805462 105.76255989 C-85.57261848 101.88821181 -82.68337691 97.94615378 -79.89367962 93.87584114 C-77.38223224 90.23255312 -74.69650171 87.21539039 -71.51867962 84.12584114 C-70.49256013 82.47512718 -69.49559819 80.80614108 -68.51867962 79.12584114 C-64.50200373 73.42744282 -60.07810907 68.01585039 -55.76111126 62.54429817 C-52.01980343 57.79136497 -48.378837 52.96949952 -44.76086712 48.12193489 C-39.18060808 40.66538667 -33.5463756 33.29140072 -27.51867962 26.18834114 C-22.93817307 20.75531129 -18.81230787 15.07827716 -14.74524212 9.25474739 C-8.16067296 0.00169494 -8.16067296 0.00169494 0 0 Z " fill="#F60402" transform="translate(393.51867961883545,367.87415885925293)"/>
<path d="M0 0 C1.31947223 -0.00384115 2.63894445 -0.00768229 3.99840069 -0.01163983 C5.476773 -0.01085949 6.95514526 -0.00998069 8.43351746 -0.00901413 C9.99299347 -0.01159618 11.55246882 -0.01460889 13.11194324 -0.01801753 C17.41336153 -0.02610937 21.71476315 -0.02787831 26.01618814 -0.028615 C30.6488226 -0.03046172 35.28144833 -0.03800702 39.91407776 -0.04475021 C50.0501328 -0.0583486 60.1861839 -0.06436033 70.32224655 -0.06876087 C76.64576553 -0.07152022 82.96928297 -0.07575695 89.2928009 -0.08026505 C106.78586735 -0.09245866 124.27893257 -0.10275845 141.77200317 -0.10614014 C143.45227871 -0.10646949 143.45227871 -0.10646949 145.1664992 -0.10680549 C146.28942242 -0.10702377 147.41234564 -0.10724204 148.56929684 -0.10746694 C150.84491921 -0.10791041 153.12054157 -0.10835697 155.39616394 -0.10880661 C156.5249607 -0.10902804 157.65375746 -0.10924947 158.81676018 -0.10947761 C177.12203666 -0.11342866 195.42727341 -0.13089162 213.73253453 -0.15416613 C232.50663512 -0.17784502 251.28071573 -0.19034037 270.0548315 -0.19150805 C280.60382182 -0.19242666 291.15276035 -0.19822564 301.70173645 -0.21632767 C310.68128656 -0.23168187 319.66076887 -0.23687688 328.6403296 -0.22858956 C333.22584573 -0.22466664 337.81122515 -0.22569214 342.3967247 -0.23964691 C346.58865475 -0.25228793 350.78034398 -0.25127568 354.97227323 -0.2390562 C356.49444849 -0.23708206 358.01664026 -0.24025574 359.53879225 -0.24890056 C361.59658417 -0.25985406 363.65445435 -0.25078629 365.71224976 -0.24050903 C366.85868045 -0.24110612 368.00511114 -0.24170321 369.18628216 -0.24231839 C370.5078543 -0.05731404 370.5078543 -0.05731404 371.85612488 0.13142776 C372.51612488 1.12142776 373.17612488 2.11142776 373.85612488 3.13142776 C372.92170952 4.40453089 371.98345377 5.67481576 371.04362488 6.94392776 C370.52155457 7.65162308 369.99948425 8.35931839 369.46159363 9.08845901 C367.85612488 11.13142776 367.85612488 11.13142776 366.34440613 12.58064651 C364.71684883 14.1602124 364.71684883 14.1602124 363.42253113 16.53377151 C361.27481309 20.09544856 358.51975396 22.91371086 355.69596863 25.94783401 C353.99055661 27.97187928 353.0148923 29.78023577 351.85612488 32.13142776 C350.87882835 33.15362711 349.8777045 34.15348345 348.85612488 35.13142776 C347.87689652 36.38623132 346.91941108 37.65822207 345.98112488 38.94392776 C344.08729937 41.50671652 342.16288122 44.00989659 340.10612488 46.44392776 C337.79440805 49.10613314 337.79440805 49.10613314 335.85612488 52.13142776 C335.19612488 51.80142776 334.53612488 51.47142776 333.85612488 51.13142776 C333.93991394 51.85845901 334.023703 52.58549026 334.11003113 53.33455276 C333.77114345 57.06753083 332.3913837 58.2272902 329.79362488 60.88142776 C324.45850089 66.53184679 319.78707336 72.46574034 315.22331238 78.74861526 C314.26775405 80.06384357 313.31202153 81.37894533 312.35612488 82.69392776 C311.87893005 83.35062454 311.40173523 84.00732132 310.91007996 84.683918 C307.96936184 88.70061979 304.89626906 92.48351096 301.54362488 96.16658401 C298.72262915 99.45121562 296.25696685 102.9909353 293.75065613 106.51814651 C288.44463602 113.8371722 288.44463602 113.8371722 285.85612488 115.13142776 C285.38174988 116.24517776 284.90737488 117.35892776 284.41862488 118.50642776 C283.03763737 121.71031877 282.2965299 122.90323187 279.85612488 125.13142776 C279.56737488 125.75017776 279.27862488 126.36892776 278.98112488 127.00642776 C277.76097713 129.31115128 276.21879801 130.73384443 274.34440613 132.51424026 C271.74320456 135.34074276 269.72206623 138.59290271 267.56706238 141.76424026 C266.13699818 143.74282224 264.75839922 145.35243257 262.98112488 147.00642776 C260.85152667 149.13602597 260.1835488 150.18461246 259.85612488 153.13142776 C259.19612488 153.13142776 258.53612488 153.13142776 257.85612488 153.13142776 C256.53612488 154.45142776 255.21612488 155.77142776 253.85612488 157.13142776 C183.89612488 157.46142776 113.93612488 157.79142776 41.85612488 158.13142776 C41.52612488 348.87142776 41.19612488 539.61142776 40.85612488 736.13142776 C40.52612488 735.47142776 40.19612488 734.81142776 39.85612488 734.13142776 C38.86612488 733.80142776 37.87612488 733.47142776 36.85612488 733.13142776 C35.38346863 730.63924026 35.38346863 730.63924026 33.79362488 727.25642776 C33.17610879 725.9675746 32.55618595 724.67987264 31.93424988 723.39314651 C31.60102722 722.70140335 31.26780457 722.00966019 30.92448425 721.29695511 C29.05457438 717.50671275 27.03756629 713.79492903 25.04362488 710.06892776 C20.87625442 702.23718678 16.99939534 694.29061856 13.2552948 686.24837112 C11.49212183 682.47790483 9.7060014 678.78202509 7.60612488 675.18611526 C5.95399196 672.30225826 5.36557179 670.35792489 4.85612488 667.13142776 C3.77072121 663.36425652 3.77072121 663.36425652 0.85612488 661.13142776 C0.67049988 660.32705276 0.67049988 660.32705276 0.48112488 659.50642776 C-0.24498943 656.74719338 -1.6065232 654.60793277 -3.03178407 652.15746301 C-7.27922893 644.41936191 -8.72843174 637.70179114 -8.63606644 628.92144966 C-8.64068181 627.83104043 -8.64529719 626.74063121 -8.65005243 625.61717927 C-8.66062971 621.96786198 -8.64270401 618.31925238 -8.62489319 614.66997147 C-8.6266378 612.02557534 -8.6299721 609.38122452 -8.63524985 606.73683751 C-8.64352557 600.98999147 -8.63700285 595.24331146 -8.62069702 589.49648476 C-8.59651861 580.95125074 -8.59535734 572.406121 -8.59886498 563.86085901 C-8.60411627 549.48518515 -8.59077134 535.10958493 -8.56679535 520.7339325 C-8.54312006 506.50206894 -8.52773011 492.27023607 -8.52338409 478.03835297 C-8.52310914 477.15316477 -8.52283418 476.26797657 -8.52255089 475.35596449 C-8.52119754 470.86046541 -8.51999201 466.3649663 -8.51884338 461.86946715 C-8.51044372 430.03521701 -8.48349984 398.20100691 -8.44563293 366.36677933 C-8.40889028 335.44197681 -8.38055824 304.51718525 -8.36360168 273.59236526 C-8.36307558 272.6389788 -8.36254948 271.68559233 -8.36200743 270.70331537 C-8.35673331 261.1289391 -8.35163006 251.55456274 -8.34665199 241.98018631 C-8.33650738 222.4764105 -8.32522237 202.9726354 -8.31324768 183.46886063 C-8.31269852 182.5721261 -8.31214936 181.67539158 -8.31158356 180.75148329 C-8.27478642 120.87811476 -8.21140626 61.00476855 -8.14387512 1.13142776 C-5.3656471 -0.25768625 -3.11045879 0.00338196 0 0 Z " fill="#000102" transform="translate(691.1438751220703,367.8685722351074)"/>
<path d="M0 0 C0.90606355 -0.00260775 1.81212711 -0.00521549 2.74564713 -0.00790226 C4.23294389 -0.00455618 4.23294389 -0.00455618 5.75028706 -0.0011425 C6.8065557 -0.00270249 7.86282434 -0.00426248 8.95110112 -0.00586975 C12.50179699 -0.00986862 16.05245034 -0.0066944 19.60314655 -0.00355339 C22.1439539 -0.0049079 24.68476104 -0.00668811 27.22556782 -0.00886345 C33.41635588 -0.01295653 39.6071281 -0.01234845 45.79791638 -0.00945081 C50.82689479 -0.00719418 55.85586981 -0.00688538 60.88484859 -0.00797462 C61.95766737 -0.00820447 61.95766737 -0.00820447 63.05215925 -0.00843897 C64.50497339 -0.00875868 65.95778752 -0.0090829 67.41060165 -0.00941156 C81.03643914 -0.01226379 94.66226991 -0.00898303 108.2881063 -0.00361119 C119.99077933 0.00085949 131.69344245 0.00007825 143.3961153 -0.00452995 C156.97721546 -0.0098753 170.55830973 -0.01199215 184.13941079 -0.00891769 C185.58602035 -0.00859913 187.03262991 -0.00828476 188.47923946 -0.00797462 C189.19105925 -0.00782035 189.90287904 -0.00766607 190.63626912 -0.00750712 C195.66328194 -0.00664206 200.69029103 -0.00810455 205.71730328 -0.01045418 C212.47481432 -0.01354316 219.23230364 -0.01136033 225.9898138 -0.00555992 C228.47757276 -0.00423157 230.96533328 -0.0046277 233.45309162 -0.00682259 C236.83318442 -0.00953106 240.21321581 -0.00615673 243.59330463 -0.0011425 C244.59152797 -0.00337322 245.58975131 -0.00560395 246.61822385 -0.00790226 C247.51646416 -0.00529452 248.41470447 -0.00268677 249.34016418 0 C250.12135894 0.00016235 250.90255369 0.0003247 251.707421 0.00049198 C253.48132038 0.12584114 253.48132038 0.12584114 254.48132038 1.12584114 C254.62723713 2.90749212 254.70865513 4.69450687 254.76257038 6.48130989 C254.79995319 7.57894661 254.83733601 8.67658333 254.87585163 9.80748177 C254.91065632 10.96441536 254.94546101 12.12134895 254.98132038 13.31334114 C255.05060061 15.57777824 255.12340748 17.84211071 255.20007038 20.10630989 C255.23036335 21.11588753 255.26065632 22.12546516 255.29186726 23.16563606 C255.4157647 26.08213746 255.4157647 26.08213746 255.98529613 28.73313314 C256.60514326 32.97276518 256.61883568 37.09103959 256.60716152 41.36937428 C256.60861496 42.29583379 256.6100684 43.2222933 256.61156589 44.17682734 C256.61522572 47.29247267 256.61173946 50.40806907 256.60830402 53.52371407 C256.60945586 55.77574209 256.61104381 58.02776993 256.61303127 60.27979738 C256.61721633 66.47762713 256.61513754 72.67544153 256.61204505 78.87327135 C256.61001943 84.86863132 256.61267772 90.86398871 256.61519242 96.85934809 C256.62046186 109.88384626 256.62000004 122.90833952 256.6171135 135.93283816 C256.61459812 147.33889677 256.61394115 158.74495359 256.61513615 170.15101242 C256.61525072 171.28583476 256.61525072 171.28583476 256.61536762 172.44358281 C256.61567896 175.5147885 256.61599736 178.5859942 256.61632738 181.6571999 C256.61938794 210.48323745 256.61661118 239.30927189 256.61123048 268.13530896 C256.60649097 293.72061498 256.60690408 319.30591602 256.61169147 344.891222 C256.61705374 373.64485622 256.61916464 402.39848767 256.61607921 431.15212232 C256.61575851 434.22176985 256.61544567 437.29141738 256.61513615 440.36106491 C256.61505707 441.11687133 256.61497799 441.87267776 256.61489652 442.65138741 C256.61376157 454.038591 256.61508473 465.42579259 256.6176157 476.81299591 C256.62048297 489.77781264 256.61974343 502.74262371 256.61433496 515.70743974 C256.61166769 522.31828255 256.61066401 528.92911751 256.61398411 535.53996086 C256.61698242 541.60209139 256.61529581 547.66420259 256.61000656 553.72633139 C256.6088973 555.90951717 256.60944007 558.09270461 256.61188234 560.2758893 C256.62528427 573.26106922 256.31131265 586.1660005 255.48132038 599.12584114 C255.15132038 598.46584114 254.82132038 597.80584114 254.48132038 597.12584114 C253.82132038 597.12584114 253.16132038 597.12584114 252.48132038 597.12584114 C251.64283234 595.67046547 250.81068104 594.21143741 249.98132038 592.75084114 C249.51725788 591.93873177 249.05319538 591.12662239 248.57507038 590.28990364 C247.48132038 588.12584114 247.48132038 588.12584114 247.48132038 586.12584114 C246.82132038 586.12584114 246.16132038 586.12584114 245.48132038 586.12584114 C244.98503132 585.23123177 244.48874226 584.33662239 243.97741413 583.41490364 C239.32860173 575.11090053 234.2852571 567.32864491 228.66491413 559.64146614 C225.14651789 554.74762775 222.30722486 549.90795343 219.71178913 544.47349739 C218.54464517 542.24666082 217.28442547 540.40844431 215.73132038 538.43834114 C212.89552599 534.8357248 210.55116638 531.00908786 208.23132038 527.06334114 C204.36240348 520.4986522 200.22991535 514.15891936 195.97350788 507.84068489 C193.47480557 504.12980866 191.02934345 500.38649045 188.60632038 496.62584114 C187.90764851 495.54302864 187.20897663 494.46021614 186.48913288 493.34459114 C185.03296915 491.01019636 183.67472156 488.68715455 182.34850788 486.28209114 C180.83824052 483.07842406 180.83824052 483.07842406 178.48132038 482.12584114 C178.08944538 481.15646614 177.69757038 480.18709114 177.29382038 479.18834114 C176.00053674 476.00338889 174.36928321 473.4105172 172.35632038 470.62584114 C168.88869264 465.82394649 165.84187467 460.85043257 162.85387897 455.74302864 C162.50277058 455.1461927 162.15166218 454.54935677 161.78991413 453.93443489 C161.45093245 453.35126711 161.11195077 452.76809934 160.76269692 452.16725981 C159.51224541 450.09620453 159.51224541 450.09620453 157.96983606 448.19887388 C153.208847 441.96727448 152.62576128 437.05957314 152.72855854 429.35792732 C152.720054 428.20079243 152.71154947 427.04365754 152.70278722 425.85145795 C152.68529098 422.66185599 152.69440486 419.47364546 152.71504271 416.28410459 C152.73074864 412.83625815 152.7116799 409.38857815 152.69689655 405.94075203 C152.67598211 399.97396973 152.67674351 394.00751045 152.69230938 388.04071617 C152.71470342 379.41063795 152.70298004 370.78086583 152.68287543 362.15079419 C152.65107182 348.14326046 152.6451802 334.13584343 152.65636921 320.12828255 C152.66716013 306.53255691 152.66820546 292.93689746 152.65441608 279.34117317 C152.65357083 278.50290114 152.65272558 277.66462911 152.65185472 276.80095489 C152.6432516 268.46746431 152.63303581 260.13397593 152.62217986 251.800488 C152.61796083 248.56145357 152.61381405 245.32241904 152.6097038 242.08338447 C152.60766733 240.48538024 152.60560017 238.88737604 152.60350183 237.28937189 C152.59032797 227.11619958 152.58596175 216.94307423 152.59120786 206.76989484 C152.59377807 201.64354442 152.5931469 196.51719605 152.59157278 191.39084537 C152.59075097 187.98795483 152.59174897 184.58508627 152.59715176 181.18219948 C152.60226873 177.49873534 152.60142517 173.81531895 152.59916401 170.1318531 C152.60383593 168.50829838 152.60383593 168.50829838 152.60860223 166.85194457 C152.60594085 165.37783395 152.60594085 165.37783395 152.60322571 163.87394333 C152.6038201 163.02331208 152.6044145 162.17268083 152.6050269 161.29627287 C152.56590683 158.94338121 152.56590683 158.94338121 151.48132038 156.12584114 C117.18704813 156.10295631 82.89277762 156.08533351 48.59849938 156.07477581 C44.55048788 156.07352509 40.50247639 156.07223077 36.45446491 156.0709095 C35.64857279 156.07064719 34.84268066 156.07038488 34.01236756 156.07011462 C20.9605017 156.06576236 7.90864024 156.05787724 -5.143223 156.04868834 C-18.53389865 156.03933949 -31.92457198 156.03378291 -45.31525075 156.03175265 C-53.57915588 156.03037999 -61.84304856 156.02604324 -70.10694985 156.01792467 C-75.77247295 156.01264204 -81.4379896 156.01104031 -87.10351498 156.01233976 C-90.37304824 156.01298076 -93.64255513 156.01144722 -96.91208553 156.00663567 C-100.45704395 156.00167371 -104.00194877 156.00285218 -107.54690838 156.00558662 C-109.09652687 156.00121736 -109.09652687 156.00121736 -110.67745078 155.99675983 C-114.58838984 156.00493534 -118.2215083 156.07609594 -122.08722782 156.7232008 C-122.88960691 156.85607211 -123.69198601 156.98894342 -124.51867962 157.12584114 C-126.39367962 155.68834114 -126.39367962 155.68834114 -127.51867962 154.12584114 C-126.40492962 153.32146614 -126.40492962 153.32146614 -125.26867962 152.50084114 C-122.28284552 149.92216624 -120.64683071 147.44325314 -118.51867962 144.12584114 C-117.4070497 142.65729083 -116.2808347 141.19971637 -115.14367962 139.75084114 C-114.54555462 138.98771614 -113.94742962 138.22459114 -113.33117962 137.43834114 C-112.73305462 136.67521614 -112.13492962 135.91209114 -111.51867962 135.12584114 C-110.38790148 133.67198354 -109.2625033 132.21391827 -108.14367962 130.75084114 C-107.66157024 130.12435677 -107.17946087 129.49787239 -106.68274212 128.85240364 C-105.33379724 127.01808295 -105.33379724 127.01808295 -104.51867962 124.12584114 C-102.87741078 122.43415791 -101.20709837 120.77046805 -99.51867962 119.12584114 C-96.43341878 115.52818716 -93.47923562 111.82653614 -90.51867962 108.12584114 C-89.89477337 107.34595833 -89.27086712 106.56607552 -88.62805462 105.76255989 C-85.57261848 101.88821181 -82.68337691 97.94615378 -79.89367962 93.87584114 C-77.38223224 90.23255312 -74.69650171 87.21539039 -71.51867962 84.12584114 C-70.49256013 82.47512718 -69.49559819 80.80614108 -68.51867962 79.12584114 C-64.50200373 73.42744282 -60.07810907 68.01585039 -55.76111126 62.54429817 C-52.01980343 57.79136497 -48.378837 52.96949952 -44.76086712 48.12193489 C-39.18060808 40.66538667 -33.5463756 33.29140072 -27.51867962 26.18834114 C-22.93817307 20.75531129 -18.81230787 15.07827716 -14.74524212 9.25474739 C-8.16067296 0.00169494 -8.16067296 0.00169494 0 0 Z M56.79382038 9.62584114 C35.42420188 10.18594347 35.42420188 10.18594347 25.22350788 10.08677864 C24.17168575 10.07792641 24.17168575 10.07792641 23.09861469 10.06889534 C19.93072981 10.03921563 16.76487195 9.99089915 13.59777546 9.91295052 C6.69909848 9.81881951 -0.68975444 9.84358749 -6.19958782 14.56675911 C-7.69990219 16.16517673 -7.69990219 16.16517673 -8.51867962 18.75084114 C-9.01367962 19.92646614 -9.01367962 19.92646614 -9.51867962 21.12584114 C-10.50867962 21.45584114 -11.49867962 21.78584114 -12.51867962 22.12584114 C-12.93117962 23.01271614 -13.34367962 23.89959114 -13.76867962 24.81334114 C-15.4110583 27.92212936 -16.39067462 29.05722784 -19.01867962 31.18834114 C-24.33379495 35.52995113 -25.83505171 39.57468222 -26.89367962 46.23521614 C-27.20305462 47.17107552 -27.20305462 47.17107552 -27.51867962 48.12584114 C-29.00367962 48.62084114 -29.00367962 48.62084114 -30.51867962 49.12584114 C-30.51867962 49.78584114 -30.51867962 50.44584114 -30.51867962 51.12584114 C-31.17867962 51.12584114 -31.83867962 51.12584114 -32.51867962 51.12584114 C-32.84867962 52.44584114 -33.17867962 53.76584114 -33.51867962 55.12584114 C-34.50867962 55.12584114 -35.49867962 55.12584114 -36.51867962 55.12584114 C-36.51867962 55.78584114 -36.51867962 56.44584114 -36.51867962 57.12584114 C-37.07555462 57.35271614 -37.63242962 57.57959114 -38.20617962 57.81334114 C-44.42931505 61.34539098 -48.69921362 67.50482369 -52.01867962 73.68834114 C-54.54255113 78.32183169 -56.80897517 81.19975123 -61.51867962 83.75084114 C-65.24629103 86.70186684 -65.91517541 89.23256891 -67.46399212 93.61021614 C-68.79786294 96.79174507 -70.61412058 98.86005966 -72.95617962 101.34849739 C-74.69245672 103.32351259 -76.00781936 105.39264784 -77.39367962 107.62584114 C-80.05415615 111.76514638 -83.13657407 114.67147663 -86.97961712 117.71568489 C-87.48750774 118.18103645 -87.99539837 118.64638802 -88.51867962 119.12584114 C-88.51867962 119.78584114 -88.51867962 120.44584114 -88.51867962 121.12584114 C-89.17867962 121.12584114 -89.83867962 121.12584114 -90.51867962 121.12584114 C-90.51867962 121.78584114 -90.51867962 122.44584114 -90.51867962 123.12584114 C-92.00367962 123.62084114 -92.00367962 123.62084114 -93.51867962 124.12584114 C-94.21814471 126.66179574 -94.21814471 126.66179574 -94.64367962 129.68834114 C-96.19316079 136.77531239 -99.74930386 140.01349783 -105.51867962 144.12584114 C-104.89334587 146.64948102 -104.89334587 146.64948102 -103.51867962 149.12584114 C-99.15948312 150.95653948 -94.26853539 149.79489711 -89.70617962 149.18834114 C-76.22468714 147.43676416 -76.22468714 147.43676416 -69.81987572 148.62764359 C-65.8305872 149.2296841 -61.92125751 149.25109184 -57.8987608 149.22590828 C-57.04384947 149.22464601 -56.18893815 149.22338373 -55.30812043 149.22208321 C-52.45029539 149.21671604 -49.59254643 149.20419282 -46.73474407 149.19175911 C-44.6827687 149.18656435 -42.63079204 149.18185653 -40.57881451 149.17759895 C-36.1623223 149.16766454 -31.74585142 149.15481708 -27.32937336 149.13987541 C-20.3402529 149.11678972 -13.3511353 149.10350137 -6.36198711 149.09218025 C13.51184459 149.05876637 33.38563419 149.01717889 53.25939655 148.95445442 C64.23740805 148.91988849 75.21538823 148.89610703 86.19344836 148.88424599 C91.99920607 148.8774861 97.80483093 148.8650734 103.61053753 148.83921623 C109.07458892 148.8148815 114.53848918 148.8045721 120.00259304 148.80481148 C122.00239982 148.8023986 124.00220835 148.79486166 126.00197315 148.78168297 C150.90280904 148.62449528 150.90280904 148.62449528 156.63588715 154.23394775 C157.24488011 154.85827257 157.85387308 155.48259739 158.48132038 156.12584114 C159.14132038 156.12584114 159.80132038 156.12584114 160.48132038 156.12584114 C161.3810385 166.03880684 161.56210739 175.9105974 161.54382038 185.86021614 C161.5432111 186.52505327 161.54260181 187.1898904 161.54197407 187.87487411 C161.52871323 200.49959708 161.3721506 213.12127011 161.19486713 225.74456978 C160.59464783 268.48653317 160.29886859 311.23153583 160.20489788 353.97747898 C160.20135114 355.57996245 160.19778886 357.18244588 160.19421101 358.78492928 C160.19244661 359.57670801 160.19068221 360.36848673 160.18886435 361.18425876 C160.17534679 366.77969943 160.15116601 372.3750337 160.12243366 377.97041512 C160.08725496 384.85306399 160.06634421 391.73557769 160.06349355 398.61831886 C160.06165295 402.18048534 160.05330642 405.74233314 160.02797222 409.30441666 C160.0004985 413.21015612 160.00442973 417.1155111 160.01134968 421.02134895 C159.9985371 422.16767894 159.98572453 423.31400892 159.97252369 424.49507618 C160.01337537 430.70529541 160.32930323 434.39582583 164.48132038 439.12584114 C165.01757038 439.74459114 165.55382038 440.36334114 166.10632038 441.00084114 C167.44320885 442.3369204 167.44320885 442.3369204 169.48132038 442.12584114 C169.58444538 442.76521614 169.68757038 443.40459114 169.79382038 444.06334114 C171.29942227 450.77011317 173.0472209 455.80492176 177.48132038 461.12584114 C178.46264747 462.90501774 179.41837455 464.69841782 180.35632038 466.50084114 C182.14792424 469.88148058 183.86363784 472.7743443 186.48132038 475.56334114 C189.96212969 479.33573657 191.90032815 483.71752398 194.10632038 488.31334114 C196.07894933 492.34826398 197.92255787 495.97969224 201.60632038 498.68834114 C203.995898 500.52035065 204.56673228 502.30586116 205.48132038 505.12584114 C206.14132038 505.12584114 206.80132038 505.12584114 207.48132038 505.12584114 C207.58444538 506.03334114 207.68757038 506.94084114 207.79382038 507.87584114 C208.48781851 511.15655958 209.18217706 512.73473209 211.48132038 515.12584114 C212.14132038 515.12584114 212.80132038 515.12584114 213.48132038 515.12584114 C213.72882038 515.66209114 213.97632038 516.19834114 214.23132038 516.75084114 C215.48769748 519.2471518 215.48769748 519.2471518 217.35632038 521.87584114 C218.94528341 524.30601989 220.14913212 526.46285642 221.35632038 529.06334114 C222.76189429 532.00782404 224.27773909 534.09952143 226.54382038 536.43834114 C229.255677 539.37955877 230.06650999 541.79507146 230.91882038 545.68834114 C232.06741803 550.59352874 233.58018214 553.169597 237.62975788 556.17662239 C240.31981537 557.5557025 242.53144955 557.55752956 245.48132038 557.12584114 C246.76703278 551.12584993 246.19147238 545.60715616 245.53991413 539.52818489 C245.48132038 536.12584114 245.48132038 536.12584114 246.46245188 533.45546687 C247.72188846 529.33967329 247.75423773 525.72454812 247.72462273 521.44948578 C247.72663082 520.58437889 247.72863891 519.71927201 247.73070785 518.82794976 C247.73500849 515.92109334 247.725 513.01446237 247.71510029 510.10762215 C247.71525631 508.00577096 247.71629452 505.90391969 247.71814054 503.80206931 C247.7206763 498.01991611 247.71072566 492.23784079 247.69879258 486.45570183 C247.68811489 480.22254604 247.68899255 473.9893909 247.68851948 467.75622749 C247.6861556 456.95380333 247.67662546 446.15141042 247.66221523 435.34899712 C247.64715722 424.01656131 247.63667147 412.68413537 247.63213634 401.35169029 C247.63171244 400.29470393 247.63171244 400.29470393 247.63127997 399.21636431 C247.62987543 395.63767835 247.62856335 392.05899236 247.62729388 388.48030634 C247.61820373 363.12841997 247.60059347 337.77654627 247.57726765 312.42466927 C247.57586007 310.89155748 247.57445269 309.35844569 247.57304548 307.82533391 C247.57234788 307.06571428 247.57165028 306.30609465 247.57093154 305.52345624 C247.56740267 301.68028555 247.56387841 297.83711486 247.56036091 293.99394417 C247.55966245 293.23184772 247.55896399 292.46975127 247.55824436 291.68456099 C247.54206016 273.97846576 247.52844487 256.27236888 247.51574421 238.56627083 C247.51519809 237.80771778 247.51465198 237.04916473 247.51408931 236.26762523 C247.50164738 218.95485984 247.49039443 201.64209421 247.48148727 184.32932663 C247.48111188 183.60205573 247.48073649 182.87478482 247.48034972 182.12547541 C247.47698357 175.58394051 247.47366518 169.04240559 247.47059958 162.50087054 C247.46294539 146.17527881 247.45231861 129.84969806 247.43441076 113.5241141 C247.42194432 102.15019166 247.41273649 90.77627191 247.4068454 79.40234374 C247.40350435 73.23688892 247.3984472 67.07144701 247.38903141 60.90599823 C247.38043687 55.26840333 247.37637576 49.63082453 247.37599605 43.99322326 C247.37502572 41.94758294 247.37233226 39.9019426 247.36779476 37.85630707 C247.36188632 35.08768856 247.36207813 32.31913686 247.36385918 29.55051422 C247.36066047 28.74612553 247.35746176 27.94173684 247.35416612 27.11297274 C247.36723313 21.56135288 247.36723313 21.56135288 248.0319077 19.02405284 C248.66715666 17.07294214 248.66715666 17.07294214 247.79382038 15.00084114 C246.1458248 12.64656173 245.21028309 12.05943364 242.48132038 11.12584114 C236.24906441 10.16355346 230.14976039 9.95814788 223.85070515 9.92051888 C222.29450962 9.90566948 222.29450962 9.90566948 220.7068758 9.8905201 C217.27884888 9.858983 213.85080922 9.83411804 210.42272663 9.80943489 C207.99889037 9.78879953 205.57505716 9.76780169 203.151227 9.74646187 C198.05123452 9.70251576 192.95123006 9.6616326 187.85119343 9.62315559 C181.44403776 9.57477103 175.03694328 9.5210066 168.62984848 9.4651947 C112.70820497 8.86730156 112.70820497 8.86730156 56.79382038 9.62584114 Z " fill="#D41311" transform="translate(393.51867961883545,367.87415885925293)"/>
<path d="M0 0 C0.90606355 -0.00260775 1.81212711 -0.00521549 2.74564713 -0.00790226 C4.23294389 -0.00455618 4.23294389 -0.00455618 5.75028706 -0.0011425 C6.8065557 -0.00270249 7.86282434 -0.00426248 8.95110112 -0.00586975 C12.50179699 -0.00986862 16.05245034 -0.0066944 19.60314655 -0.00355339 C22.1439539 -0.0049079 24.68476104 -0.00668811 27.22556782 -0.00886345 C33.41635588 -0.01295653 39.6071281 -0.01234845 45.79791638 -0.00945081 C50.82689479 -0.00719418 55.85586981 -0.00688538 60.88484859 -0.00797462 C61.95766737 -0.00820447 61.95766737 -0.00820447 63.05215925 -0.00843897 C64.50497339 -0.00875868 65.95778752 -0.0090829 67.41060165 -0.00941156 C81.03643914 -0.01226379 94.66226991 -0.00898303 108.2881063 -0.00361119 C119.99077933 0.00085949 131.69344245 0.00007825 143.3961153 -0.00452995 C156.97721546 -0.0098753 170.55830973 -0.01199215 184.13941079 -0.00891769 C185.58602035 -0.00859913 187.03262991 -0.00828476 188.47923946 -0.00797462 C189.19105925 -0.00782035 189.90287904 -0.00766607 190.63626912 -0.00750712 C195.66328194 -0.00664206 200.69029103 -0.00810455 205.71730328 -0.01045418 C212.47481432 -0.01354316 219.23230364 -0.01136033 225.9898138 -0.00555992 C228.47757276 -0.00423157 230.96533328 -0.0046277 233.45309162 -0.00682259 C236.83318442 -0.00953106 240.21321581 -0.00615673 243.59330463 -0.0011425 C244.59152797 -0.00337322 245.58975131 -0.00560395 246.61822385 -0.00790226 C247.51646416 -0.00529452 248.41470447 -0.00268677 249.34016418 0 C250.12135894 0.00016235 250.90255369 0.0003247 251.707421 0.00049198 C253.48132038 0.12584114 253.48132038 0.12584114 254.48132038 1.12584114 C254.62723713 2.90749212 254.70865513 4.69450687 254.76257038 6.48130989 C254.79995319 7.57894661 254.83733601 8.67658333 254.87585163 9.80748177 C254.91065632 10.96441536 254.94546101 12.12134895 254.98132038 13.31334114 C255.05060061 15.57777824 255.12340748 17.84211071 255.20007038 20.10630989 C255.23036335 21.11588753 255.26065632 22.12546516 255.29186726 23.16563606 C255.4157647 26.08213746 255.4157647 26.08213746 255.98529613 28.73313314 C256.60514326 32.97276518 256.61883568 37.09103959 256.60716152 41.36937428 C256.60861496 42.29583379 256.6100684 43.2222933 256.61156589 44.17682734 C256.61522572 47.29247267 256.61173946 50.40806907 256.60830402 53.52371407 C256.60945586 55.77574209 256.61104381 58.02776993 256.61303127 60.27979738 C256.61721633 66.47762713 256.61513754 72.67544153 256.61204505 78.87327135 C256.61001943 84.86863132 256.61267772 90.86398871 256.61519242 96.85934809 C256.62046186 109.88384626 256.62000004 122.90833952 256.6171135 135.93283816 C256.61459812 147.33889677 256.61394115 158.74495359 256.61513615 170.15101242 C256.61525072 171.28583476 256.61525072 171.28583476 256.61536762 172.44358281 C256.61567896 175.5147885 256.61599736 178.5859942 256.61632738 181.6571999 C256.61938794 210.48323745 256.61661118 239.30927189 256.61123048 268.13530896 C256.60649097 293.72061498 256.60690408 319.30591602 256.61169147 344.891222 C256.61705374 373.64485622 256.61916464 402.39848767 256.61607921 431.15212232 C256.61575851 434.22176985 256.61544567 437.29141738 256.61513615 440.36106491 C256.61505707 441.11687133 256.61497799 441.87267776 256.61489652 442.65138741 C256.61376157 454.038591 256.61508473 465.42579259 256.6176157 476.81299591 C256.62048297 489.77781264 256.61974343 502.74262371 256.61433496 515.70743974 C256.61166769 522.31828255 256.61066401 528.92911751 256.61398411 535.53996086 C256.61698242 541.60209139 256.61529581 547.66420259 256.61000656 553.72633139 C256.6088973 555.90951717 256.60944007 558.09270461 256.61188234 560.2758893 C256.62528427 573.26106922 256.31131265 586.1660005 255.48132038 599.12584114 C255.15132038 598.46584114 254.82132038 597.80584114 254.48132038 597.12584114 C253.82132038 597.12584114 253.16132038 597.12584114 252.48132038 597.12584114 C251.64283234 595.67046547 250.81068104 594.21143741 249.98132038 592.75084114 C249.51725788 591.93873177 249.05319538 591.12662239 248.57507038 590.28990364 C247.48132038 588.12584114 247.48132038 588.12584114 247.48132038 586.12584114 C246.82132038 586.12584114 246.16132038 586.12584114 245.48132038 586.12584114 C244.98503132 585.23123177 244.48874226 584.33662239 243.97741413 583.41490364 C239.32860173 575.11090053 234.2852571 567.32864491 228.66491413 559.64146614 C225.14651789 554.74762775 222.30722486 549.90795343 219.71178913 544.47349739 C218.54464517 542.24666082 217.28442547 540.40844431 215.73132038 538.43834114 C212.89552599 534.8357248 210.55116638 531.00908786 208.23132038 527.06334114 C204.36240348 520.4986522 200.22991535 514.15891936 195.97350788 507.84068489 C193.47480557 504.12980866 191.02934345 500.38649045 188.60632038 496.62584114 C187.90764851 495.54302864 187.20897663 494.46021614 186.48913288 493.34459114 C185.03296915 491.01019636 183.67472156 488.68715455 182.34850788 486.28209114 C180.83824052 483.07842406 180.83824052 483.07842406 178.48132038 482.12584114 C178.08944538 481.15646614 177.69757038 480.18709114 177.29382038 479.18834114 C176.00053674 476.00338889 174.36928321 473.4105172 172.35632038 470.62584114 C168.88869264 465.82394649 165.84187467 460.85043257 162.85387897 455.74302864 C162.50277058 455.1461927 162.15166218 454.54935677 161.78991413 453.93443489 C161.45097272 453.35133897 161.1120313 452.76824304 160.76281893 452.16747755 C159.51203162 450.09595771 159.51203162 450.09595771 157.96873796 448.19691426 C153.2165016 441.9755543 152.63341509 437.10212846 152.75979328 429.41366768 C152.75466673 428.26258319 152.74954018 427.11149871 152.74425828 425.92553288 C152.73440588 422.08344068 152.76732652 418.24293404 152.80016804 414.40098763 C152.80520674 411.64106444 152.80117322 408.88117179 152.79751301 406.12124825 C152.79437414 400.18713717 152.81312235 394.25342338 152.84694004 388.31941223 C152.89580177 379.74000867 152.91133882 371.16079629 152.91886799 362.58126868 C152.93198425 348.66006362 152.9718716 334.73907009 153.02868366 320.81797981 C153.08379806 307.29878481 153.12624885 293.77964736 153.15173054 280.26036263 C153.15409505 279.00937125 153.15409505 279.00937125 153.15650733 277.73310732 C153.16433782 273.54900344 153.17192001 269.36489915 153.17937875 265.1807946 C153.24153076 230.49565936 153.34716726 195.8107698 153.48132038 161.12584114 C154.47132038 161.45584114 155.46132038 161.78584114 156.48132038 162.12584114 C156.48191747 162.69319339 156.48251456 163.26054564 156.48312974 163.84509039 C156.51907851 197.52351985 156.57580138 231.20184618 156.65924133 264.88019112 C156.66925795 268.93033582 156.67910222 272.98048092 156.68883991 277.0306263 C156.69078129 277.83688593 156.69272266 278.64314557 156.69472286 279.47383732 C156.72568461 292.50277478 156.7427072 305.53169467 156.7545146 318.56066197 C156.76695643 331.94465603 156.79452592 345.3285583 156.83593345 358.71249437 C156.8609824 366.96104823 156.87444398 375.20944971 156.87274995 383.45804214 C156.87272004 389.12604383 156.88747701 394.7938911 156.91348466 400.46183252 C156.92803116 403.72460811 156.93421641 406.98700713 156.92712307 410.24981689 C155.83968847 432.36015316 155.83968847 432.36015316 164.01995945 451.8941288 C164.83220856 452.63059387 165.64445766 453.36705894 166.48132038 454.12584114 C168.07322795 456.38073139 169.50674402 458.69065624 170.95397663 461.03990364 C172.37083988 463.21263399 172.37083988 463.21263399 174.51257038 464.53599739 C177.15415686 466.6691833 177.76653701 468.76856508 178.91882038 471.93834114 C180.85878428 476.92079502 182.88919368 480.22581787 186.48132038 484.12584114 C186.48132038 484.78584114 186.48132038 485.44584114 186.48132038 486.12584114 C187.14132038 486.45584114 187.80132038 486.78584114 188.48132038 487.12584114 C189.22326097 488.49351475 189.899264 489.8971653 190.54382038 491.31334114 C195.05773861 500.62162814 200.85811531 509.46068381 207.38757038 517.47740364 C208.61919649 519.33364013 209.06341084 520.95081194 209.48132038 523.12584114 C210.47132038 523.12584114 211.46132038 523.12584114 212.48132038 523.12584114 C212.87319538 524.15709114 213.26507038 525.18834114 213.66882038 526.25084114 C214.87122289 529.08873901 215.93853377 530.67449721 217.98132038 533.12584114 C220.48132038 536.12584114 220.48132038 536.12584114 221.91882038 539.50084114 C223.53905395 543.25978302 225.49509093 545.95184016 228.00475788 549.14146614 C229.38618101 550.99798188 230.46917329 552.83139059 231.54382038 554.87584114 C233.5432404 558.22970698 235.42756089 559.77679538 238.48132038 562.12584114 C241.11838479 565.70471426 241.97010137 568.7293576 242.48132038 573.12584114 C245.88452972 573.80257561 245.88452972 573.80257561 249.48132038 574.12584114 C252.14695973 571.46020179 251.72703712 569.46494289 251.75297287 565.83950207 C251.74723569 564.49947027 251.74723569 564.49947027 251.7413826 563.13236713 C251.74518827 562.18437979 251.74899394 561.23639245 251.75291494 560.25967821 C251.76331482 557.04681437 251.75930918 553.83412446 251.75547504 550.62124825 C251.7599229 548.30907082 251.76523544 545.99689492 251.77134377 543.68472129 C251.78409161 537.97325976 251.78741443 532.26184576 251.78681197 526.55037128 C251.78659069 519.71258345 251.79788553 512.87482708 251.80943816 506.03705076 C251.83421128 491.07633306 251.84296451 476.1156264 251.84797465 461.15489102 C251.84836641 459.99193764 251.84836641 459.99193764 251.84876609 458.80549026 C251.8491565 457.64026723 251.8491565 457.64026723 251.8495548 456.45150434 C251.85263385 447.85322563 251.85913744 439.25495001 251.86576748 430.65667343 C251.88541878 404.69934648 251.90182123 378.74202287 251.90464401 352.784688 C251.9047851 351.53859827 251.9047851 351.53859827 251.90492905 350.26733502 C251.90530754 346.90058412 251.90567154 343.53383322 251.90603203 340.16708232 C251.90630375 337.63290882 251.90658043 335.09873533 251.90685749 332.56456184 C251.90694551 331.72717466 251.90703354 330.88978748 251.90712423 330.02702493 C251.91003023 303.71072816 251.93212897 277.39450482 251.96838093 251.07823372 C252.00907967 221.53295926 252.03280237 191.98773483 252.03310353 162.44243079 C252.03320035 159.29377257 252.03336708 156.14511436 252.03358364 152.99645615 C252.03362776 152.22113884 252.03367187 151.44582154 252.03371732 150.64700977 C252.03483865 138.15297721 252.05226897 125.659018 252.07540296 113.16500909 C252.09821124 100.61433353 252.10249296 88.06375741 252.08785366 75.51306876 C252.08040444 68.70947795 252.08100958 61.90611978 252.10426426 55.10255814 C252.12473669 48.88048492 252.12236403 42.65886456 252.10138942 36.43679688 C252.09787195 34.17971335 252.10289883 31.92259791 252.11709385 29.66555627 C252.13508741 26.60875928 252.12258682 23.55358416 252.10214615 20.49683857 C252.12099121 19.16734203 252.12099121 19.16734203 252.14021698 17.81098697 C252.07669313 13.40515593 251.90364107 11.66555494 249.10104686 8.08391947 C246.13883 5.86985144 244.741516 5.45348312 241.08318806 5.32539558 C239.93019466 5.2791341 238.77720127 5.23287262 237.58926868 5.18520927 C236.22000207 5.1622494 234.85067554 5.14271287 233.48132038 5.12584114 C232.70704669 5.11164399 231.932773 5.09744683 231.13503647 5.08281946 C224.37390836 4.96458288 217.61344474 4.94623167 210.85143757 4.93297005 C208.57843626 4.92505515 206.30543616 4.91678538 204.03243732 4.90818977 C196.61436858 4.88215868 189.19629467 4.8666943 181.77819538 4.85240364 C179.21617601 4.84703864 176.65415666 4.84166112 174.09213734 4.83627129 C163.43902613 4.81468209 152.78591766 4.79579322 142.13279057 4.7846489 C139.3798265 4.78171993 136.62686248 4.77875812 133.87389851 4.77574348 C133.18978819 4.77499743 132.50567788 4.77425138 131.80083695 4.77348273 C120.69817312 4.76080598 109.59566853 4.72753575 98.49307927 4.68594165 C87.0670571 4.64348913 75.64115603 4.62035872 64.21504807 4.61472833 C57.8102484 4.61107687 51.40572059 4.59907383 45.00099659 4.5666256 C38.98274195 4.53656479 32.96492414 4.53022634 26.94661045 4.54200935 C24.74115972 4.54223016 22.53568876 4.53391949 20.33030796 4.51635551 C17.31426408 4.49364505 14.29980251 4.50196783 11.28374958 4.51783943 C10.41613271 4.50395734 9.54851583 4.49007526 8.65460753 4.4757725 C0.2870347 4.5839095 -6.45688037 8.44290434 -12.51867962 14.12584114 C-12.84867962 15.11584114 -13.17867962 16.10584114 -13.51867962 17.12584114 C-14.17867962 17.12584114 -14.83867962 17.12584114 -15.51867962 17.12584114 C-15.53930462 17.82709114 -15.55992962 18.52834114 -15.58117962 19.25084114 C-16.79592362 22.97605609 -18.74928027 24.20002962 -21.74524212 26.59068489 C-24.25929936 28.7669503 -25.80724206 31.29311691 -27.51867962 34.12584114 C-30.98731794 39.72041908 -30.98731794 39.72041908 -33.92492962 41.96177864 C-36.73046874 44.30254471 -38.2271952 46.49428509 -40.08117962 49.62584114 C-42.24613621 53.26576816 -44.3018991 56.33664904 -47.51867962 59.12584114 C-48.17867962 59.12584114 -48.83867962 59.12584114 -49.51867962 59.12584114 C-49.77262493 59.84255989 -50.02657024 60.55927864 -50.28821087 61.29771614 C-52.52273819 66.4335821 -56.16313967 70.67399662 -59.51867962 75.12584114 C-60.17094524 76.02173958 -60.82321087 76.91763802 -61.49524212 77.84068489 C-62.10110149 78.65666145 -62.70696087 79.47263802 -63.33117962 80.31334114 C-64.14522259 81.41742317 -64.14522259 81.41742317 -64.97571087 82.54380989 C-65.48489056 83.0658802 -65.99407024 83.58795052 -66.51867962 84.12584114 C-67.50867962 84.12584114 -68.49867962 84.12584114 -69.51867962 84.12584114 C-69.51867962 86.10584114 -69.51867962 88.08584114 -69.51867962 90.12584114 C-70.50867962 90.12584114 -71.49867962 90.12584114 -72.51867962 90.12584114 C-73.72003028 91.94502929 -74.90582128 93.77624211 -76.01477337 95.65318489 C-80.07183871 102.32363258 -84.79535765 108.4522788 -90.08117962 114.18834114 C-97.30470376 122.05726606 -102.6104526 130.66896418 -107.51867962 140.12584114 C-108.50867962 140.12584114 -109.49867962 140.12584114 -110.51867962 140.12584114 C-110.51867962 141.44584114 -110.51867962 142.76584114 -110.51867962 144.12584114 C-111.17867962 144.12584114 -111.83867962 144.12584114 -112.51867962 144.12584114 C-112.51867962 146.43584114 -112.51867962 148.74584114 -112.51867962 151.12584114 C-111.85867962 151.12584114 -111.19867962 151.12584114 -110.51867962 151.12584114 C-110.51867962 151.78584114 -110.51867962 152.44584114 -110.51867962 153.12584114 C-109.97601458 153.12470198 -109.43334954 153.12356282 -108.8742401 153.12238914 C-76.73318257 153.05529918 -44.59214352 153.00380389 -12.45103214 152.97264515 C-8.59443079 152.9688929 -4.73782959 152.96500994 -0.88122845 152.96104622 C-0.11342738 152.96025929 0.65437368 152.95947236 1.44544145 152.95866158 C13.88826694 152.94559683 26.33105098 152.92193713 38.77385185 152.89438275 C51.53509379 152.86635824 64.29631397 152.84967115 77.05758542 152.84357566 C84.93614111 152.83945306 92.81457964 152.82641811 100.69309928 152.80209174 C106.72769914 152.78440453 112.76219757 152.78246802 118.79682636 152.7865181 C121.27729929 152.78568967 123.75777647 152.77968155 126.23822308 152.76822472 C129.61359594 152.75339314 132.98845937 152.75685351 136.36384296 152.76507759 C137.35507815 152.75633907 138.34631334 152.74760054 139.36758596 152.73859721 C140.71939467 152.74755693 140.71939467 152.74755693 142.09851265 152.75669765 C142.87807849 152.75555849 143.65764433 152.75441933 144.46083337 152.75324565 C146.97890848 153.21760074 147.8725364 154.18790104 149.48132038 156.12584114 C148.63411806 156.12527156 148.63411806 156.12527156 147.76980054 156.12469047 C114.30082298 156.10231615 80.83184729 156.08515648 47.36286392 156.07477581 C43.34489497 156.07352509 39.32692603 156.07223077 35.3089571 156.0709095 C34.5090462 156.07064719 33.70913531 156.07038488 32.88498469 156.07011462 C19.93011671 156.0657624 6.97525316 156.0578773 -5.97961219 156.04868834 C-19.27084674 156.03933937 -32.56207896 156.03378289 -45.85331666 156.03175265 C-54.0558029 156.03038001 -62.2582766 156.0260434 -70.46075897 156.01792467 C-76.08423251 156.01264189 -81.70769956 156.01104035 -87.3311754 156.01233976 C-90.57640553 156.01298074 -93.8216091 156.01144741 -97.06683636 156.00663567 C-100.58552053 156.00167342 -104.10415073 156.00285229 -107.62283611 156.00558662 C-108.64813321 156.00267378 -109.6734303 155.99976094 -110.72979701 155.99675983 C-114.62220188 156.00495655 -118.23504065 156.07829797 -122.08248234 156.7232008 C-122.88642744 156.85607211 -123.69037254 156.98894342 -124.51867962 157.12584114 C-126.39367962 155.68834114 -126.39367962 155.68834114 -127.51867962 154.12584114 C-126.40492962 153.32146614 -126.40492962 153.32146614 -125.26867962 152.50084114 C-122.28284552 149.92216624 -120.64683071 147.44325314 -118.51867962 144.12584114 C-117.4070497 142.65729083 -116.2808347 141.19971637 -115.14367962 139.75084114 C-114.54555462 138.98771614 -113.94742962 138.22459114 -113.33117962 137.43834114 C-112.73305462 136.67521614 -112.13492962 135.91209114 -111.51867962 135.12584114 C-110.38790148 133.67198354 -109.2625033 132.21391827 -108.14367962 130.75084114 C-107.66157024 130.12435677 -107.17946087 129.49787239 -106.68274212 128.85240364 C-105.33379724 127.01808295 -105.33379724 127.01808295 -104.51867962 124.12584114 C-102.87741078 122.43415791 -101.20709837 120.77046805 -99.51867962 119.12584114 C-96.43341878 115.52818716 -93.47923562 111.82653614 -90.51867962 108.12584114 C-89.89477337 107.34595833 -89.27086712 106.56607552 -88.62805462 105.76255989 C-85.57261848 101.88821181 -82.68337691 97.94615378 -79.89367962 93.87584114 C-77.38223224 90.23255312 -74.69650171 87.21539039 -71.51867962 84.12584114 C-70.49256013 82.47512718 -69.49559819 80.80614108 -68.51867962 79.12584114 C-64.50200373 73.42744282 -60.07810907 68.01585039 -55.76111126 62.54429817 C-52.01980343 57.79136497 -48.378837 52.96949952 -44.76086712 48.12193489 C-39.18060808 40.66538667 -33.5463756 33.29140072 -27.51867962 26.18834114 C-22.93817307 20.75531129 -18.81230787 15.07827716 -14.74524212 9.25474739 C-8.16067296 0.00169494 -8.16067296 0.00169494 0 0 Z " fill="#B93A36" transform="translate(393.51867961883545,367.87415885925293)"/>
<path d="M0 0 C0.94525655 -0.00035775 1.89051311 -0.0007155 2.8644138 -0.00108409 C3.90486707 0.00367334 4.94532035 0.00843077 6.01730251 0.01333237 C7.67286943 0.01500101 7.67286943 0.01500101 9.36188215 0.01670337 C13.07919638 0.02176296 16.79645058 0.03411953 20.51374722 0.04647446 C23.17100951 0.05170481 25.82827021 0.05655371 28.48553371 0.06098557 C35.71668397 0.0742078 42.94780012 0.09506798 50.17892671 0.11755085 C54.69116483 0.13156332 59.20340634 0.14407079 63.7156496 0.15629959 C76.20158117 0.19041371 88.68750397 0.22641343 101.17340851 0.26939392 C101.97255506 0.27214197 102.77170161 0.27489001 103.59506473 0.27772133 C104.39614546 0.280478 105.1972262 0.28323467 106.02258211 0.28607488 C107.64593922 0.2916603 109.26929634 0.29724271 110.89265347 0.30282211 C112.10052076 0.30697589 112.10052076 0.30697589 113.33278941 0.31121358 C126.39361609 0.35576888 139.45443723 0.38680322 152.51531417 0.41202191 C165.91514965 0.43808598 179.31491585 0.47531055 192.7146892 0.52384162 C200.24215945 0.55084358 207.76957558 0.57298953 215.29708958 0.58285904 C221.70383923 0.59131432 228.11045662 0.60991776 234.51713354 0.64196286 C237.78826167 0.65801668 241.05918239 0.6675358 244.33035564 0.66736031 C247.87018459 0.66794712 251.40944839 0.68674044 254.94918728 0.71035385 C256.51321328 0.70410567 256.51321328 0.70410567 258.10883576 0.69773126 C259.52280897 0.71284112 259.52280897 0.71284112 260.96534729 0.72825623 C261.78315754 0.7306969 262.6009678 0.73313757 263.44356018 0.73565221 C264.42177566 0.92383051 264.42177566 0.92383051 265.41975307 1.11581039 C267.56694887 4.33660409 267.66852176 5.15527316 267.66191292 8.85832596 C267.66506152 9.83983297 267.66821012 10.82133998 267.67145413 11.83258963 C267.66474456 12.9135952 267.65803499 13.99460078 267.65112209 15.10836411 C267.65240226 16.82790983 267.65240226 16.82790983 267.65370828 18.58219385 C267.65421714 21.76948624 267.64580264 24.9566155 267.63381398 28.14388084 C267.62312784 31.57964976 267.62406188 35.01541585 267.62388515 38.45119858 C267.62228329 44.40815992 267.61417935 50.36508349 267.60245228 56.32203293 C267.58458431 65.74309815 267.58847583 75.16409651 267.5960989 84.58517075 C267.59845426 87.80879587 267.60069399 91.03242107 267.60291672 94.2560463 C267.60376352 95.4645825 267.60376352 95.4645825 267.60462743 96.69753358 C267.61082286 105.87211504 267.61316905 115.04669569 267.61335659 124.22127914 C267.61339175 125.47943631 267.61339175 125.47943631 267.61342762 126.7630108 C267.61317744 140.34159476 267.59408248 153.92010207 267.56975993 167.49866122 C267.54541606 181.44434985 267.54789105 195.38986812 267.57344133 209.3355546 C267.58822031 217.93381426 267.58125921 226.53150089 267.54614023 235.12970406 C267.52391468 241.02849598 267.52726168 246.92692915 267.55043962 252.82571596 C267.56300694 256.22608294 267.56051409 259.62464398 267.53485584 263.02505875 C267.50872968 266.72004671 267.52587488 270.41246527 267.55346584 274.10738754 C267.53560266 275.17054735 267.51773948 276.23370715 267.49933499 277.32908392 C267.63295439 285.60320201 270.60085281 290.54363771 275.41975307 297.11581039 C276.30837547 298.51480221 277.18644636 299.92067348 278.04475307 301.33846664 C278.43807827 301.97429672 278.83140347 302.6101268 279.23664761 303.26522446 C279.82228481 304.212202 279.82228481 304.212202 280.41975307 305.17831039 C283.81110746 310.66015443 287.34017039 315.96023137 291.24006557 321.10018539 C292.41975307 323.11581039 292.41975307 323.11581039 292.41975307 327.11581039 C293.40975307 327.44581039 294.39975307 327.77581039 295.41975307 328.11581039 C296.75178432 330.10018539 296.75178432 330.10018539 298.23225307 332.86581039 C301.56537882 338.79526568 305.23592621 344.41900951 309.04475307 350.05331039 C314.53441989 358.19364318 319.80268792 366.44025579 324.89289761 374.83626938 C328.04080628 380.00120955 331.36877989 384.97535231 334.90632534 389.8826561 C336.28184811 391.91232327 337.38493511 393.89787911 338.41975307 396.11581039 C340.31910237 400.12998138 342.76768687 403.59109195 345.34553432 407.19784164 C347.85247852 410.72455975 350.30508036 414.28386527 352.73225307 417.86581039 C353.16489468 418.4917308 353.59753628 419.11765121 354.04328823 419.76253891 C356.5226222 423.43759736 358.22007696 426.79432515 359.41975307 431.11581039 C360.07975307 431.11581039 360.73975307 431.11581039 361.41975307 431.11581039 C362.07975307 433.09581039 362.73975307 435.07581039 363.41975307 437.11581039 C356.96786674 430.85943577 351.44021846 424.54143326 346.93537807 416.72909164 C345.41199109 414.10242698 343.80952267 411.54624572 342.16975307 408.99081039 C340.04416684 405.67432652 337.93678205 402.34802506 335.85725307 399.00252914 C335.41284878 398.28790512 334.96844448 397.5732811 334.51057339 396.8370018 C333.63343968 395.4248357 332.75772991 394.01178393 331.88362026 392.59774399 C330.23618109 389.94731662 328.60350293 387.35968117 326.72444057 384.86581039 C324.1319336 381.38843576 322.78138359 377.20070194 321.41975307 373.11581039 C320.75975307 373.11581039 320.09975307 373.11581039 319.41975307 373.11581039 C314.50339056 367.32784899 310.76370047 360.47523007 306.91340542 353.94784164 C303.54542483 348.25370147 299.94114574 342.73778989 296.26740932 337.23690414 C294.48765521 334.23051189 293.38119526 331.46324 292.41975307 328.11581039 C291.75975307 328.11581039 291.09975307 328.11581039 290.41975307 328.11581039 C286.19563342 322.60652226 282.78628362 316.9484631 281.41975307 310.11581039 C280.75975307 310.11581039 280.09975307 310.11581039 279.41975307 310.11581039 C277.90945399 308.01951527 276.52715117 305.93353039 275.16975307 303.74081039 C274.79979214 303.15686508 274.4298312 302.57291977 274.04865932 301.97127914 C273.28123927 300.75335995 272.52661633 299.5272891 271.78459263 298.29373264 C270.44574257 296.09684934 270.44574257 296.09684934 268.89181232 294.04112148 C263.84160458 286.76185103 263.56359655 280.32989469 263.64680386 271.6873436 C263.63859828 270.24811978 263.62777065 268.80890893 263.61455822 267.36972237 C263.58611226 263.45677368 263.5944617 259.54467039 263.60940981 255.6316793 C263.61901182 251.44660588 263.59449583 247.26171727 263.57408047 243.07670212 C263.54374 235.91472984 263.53494662 228.75299935 263.54096889 221.59096909 C263.54940264 211.3534256 263.52065907 201.11623963 263.48342896 190.87877321 C263.36730287 158.21978614 263.37839417 125.56115258 263.52570903 92.90230292 C263.54678084 88.21184642 263.56447365 83.52139086 263.58030605 78.83091354 C263.58909907 76.28680029 263.59791813 73.74268713 263.60676479 71.19857407 C263.61089445 69.97871968 263.61502411 68.7588653 263.61927891 67.50204563 C263.64625091 60.39637843 263.6998732 53.29152458 263.77463245 46.18620586 C263.81586986 41.86254889 263.83758323 37.53894983 263.85431957 33.21513557 C263.86649549 31.24835438 263.88745147 29.28160383 263.91807842 27.31502342 C263.9586553 24.67087604 263.96882477 22.02829298 263.97151089 19.3838768 C263.99105391 18.62478673 264.01059692 17.86569666 264.03073215 17.08360386 C263.99658079 12.64554163 263.13161986 9.70759803 260.15827549 6.36469173 C256.53232883 3.75996424 252.15605245 4.32348327 247.86089993 4.40101242 C246.78547579 4.39659144 245.71005166 4.39217045 244.60203892 4.3876155 C240.991743 4.38006305 237.38313937 4.41544194 233.77302456 4.45052719 C231.1876791 4.45385608 228.60232906 4.45452918 226.01698208 4.45273972 C220.44674735 4.45300411 214.87694406 4.47512396 209.30683613 4.51199532 C201.24912434 4.56521223 193.19161309 4.58428637 185.13374568 4.59486864 C172.05456349 4.61287782 158.97560647 4.65694929 145.89655972 4.71810532 C133.2019178 4.7773945 120.50730978 4.82697276 107.81257534 4.86166 C106.63956843 4.86487262 106.63956843 4.86487262 105.44286441 4.86815014 C96.90736572 4.89130584 88.3718622 4.91239149 79.83635712 4.93303013 C77.5729609 4.93854338 75.30956473 4.9440749 73.04616862 4.94962832 C71.55428175 4.9532797 70.0623948 4.95689998 68.57050777 4.96048865 C59.07409116 4.98351604 49.57775979 5.01542366 40.08140647 5.05701959 C34.64238049 5.08075439 29.20334039 5.10002779 23.76429653 5.11915779 C21.23586228 5.12904315 18.70743431 5.14071259 16.17901707 5.15426636 C12.7365526 5.17259851 9.29411756 5.18485816 5.85162258 5.19569016 C4.84336514 5.20269571 3.83510771 5.20970127 2.79629701 5.21691912 C1.87528328 5.21862827 0.95426954 5.22033741 0.0053463 5.22209835 C-0.78935603 5.22573051 -1.58405836 5.22936266 -2.40284258 5.23310488 C-4.5835044 5.11563492 -6.48615127 4.71878489 -8.58024693 4.11581039 C-8.25024693 3.12581039 -7.92024693 2.13581039 -7.58024693 1.11581039 C-4.71810489 0.16176305 -2.96732309 -0.00649809 0 0 Z " fill="#EFBBB7" transform="translate(279.580246925354,522.8841896057129)"/>
<path d="M0 0 C0.99 0.33 1.98 0.66 3 1 C3.00097681 1.56849141 3.00195362 2.13698283 3.00296003 2.72270125 C3.0612911 36.45103361 3.13513242 70.17929394 3.22898628 103.90754597 C3.24025382 107.96155703 3.25139237 112.01556844 3.26245117 116.06958008 C3.2657567 117.28014993 3.2657567 117.28014993 3.269129 118.51517574 C3.30445645 131.56553358 3.32934624 144.61589136 3.35034702 157.66627922 C3.3721454 171.06719719 3.40523401 184.46805335 3.44870156 197.86891872 C3.47514887 206.13127486 3.49289513 214.39355406 3.49934604 222.6559504 C3.50462118 228.32951494 3.52090904 234.00298285 3.54566566 239.67649551 C3.55960831 242.94491809 3.56724044 246.21313527 3.56500816 249.48159218 C3.33551814 266.33344087 3.33551814 266.33344087 6.45660686 282.78974628 C7 285 7 285 6 288 C0.02570724 281.76885427 -0.86007467 276.85998086 -0.7215271 268.40808105 C-0.72665365 267.257851 -0.7317802 266.10762094 -0.7370621 264.92253542 C-0.74692668 261.07733953 -0.71397363 257.23372248 -0.68115234 253.38867188 C-0.67611545 250.62889618 -0.68014655 247.86915105 -0.68380737 245.109375 C-0.68694797 239.1725182 -0.66818158 233.23605816 -0.63438034 227.29930115 C-0.58554221 218.71590155 -0.56998397 210.13269308 -0.56245239 201.5491696 C-0.54933244 187.62186379 -0.50943505 173.69476927 -0.45263672 159.76757812 C-0.3975319 146.24154718 -0.35507641 132.71557371 -0.32958984 119.18945312 C-0.3280135 118.35519615 -0.32643716 117.52093918 -0.32481305 116.66140169 C-0.31698262 112.47602717 -0.30940042 108.29065225 -0.30194163 104.10527706 C-0.23977813 69.40336745 -0.13413154 34.70170324 0 0 Z " fill="#BA3935" transform="translate(547,529)"/>
<path d="M0 0 C0.33 0 0.66 0 1 0 C1.00040018 0.55205953 1.00080037 1.10411905 1.00121268 1.67290766 C1.0448754 61.76020781 1.09223377 121.84750448 1.15898132 181.93478394 C1.15997689 182.83195841 1.16097246 183.72913288 1.16199819 184.65349446 C1.18365535 204.15023516 1.20597795 223.64697504 1.22898628 243.1437142 C1.24026507 252.70453328 1.25139677 262.26535253 1.26245117 271.82617188 C1.26355374 272.77760212 1.2646563 273.72903236 1.26579228 274.70929382 C1.30147815 305.5630037 1.32744632 336.41671249 1.34838969 367.27043561 C1.36995804 398.96944134 1.40130106 430.66842268 1.44499113 462.36740601 C1.45115362 466.84186994 1.45720405 471.31633401 1.46318626 475.79079819 C1.46495759 477.11179166 1.46495759 477.11179166 1.46676469 478.45947188 C1.48550603 492.65126011 1.49390455 506.84303664 1.49846124 521.03483573 C1.50325902 535.29296301 1.51889123 549.5510455 1.54566566 563.80914874 C1.56125276 572.28624347 1.56844992 580.76324992 1.56376929 589.2403582 C1.56146251 594.89862969 1.56995501 600.55681757 1.58732411 606.21506273 C1.59691765 609.44193722 1.60008461 612.66858995 1.59339563 615.89547743 C1.58692736 619.36832687 1.59871629 622.84064311 1.61523914 626.31344795 C1.60896245 627.31965392 1.60268575 628.32585988 1.59621885 629.36255693 C1.64394908 634.77219718 2.2430218 638.20737684 5 643 C4.67 643.66 4.34 644.32 4 645 C-1.16103728 639.08257615 -1.71271049 634.88709 -1.59962177 627.17478275 C-1.60370262 626.08952343 -1.60778347 625.00426411 -1.61198798 623.88611814 C-1.61956973 620.23607993 -1.59129969 616.58719733 -1.56330872 612.93727112 C-1.56135891 610.29958182 -1.56139934 607.66196091 -1.56388015 605.02427906 C-1.56526605 599.28274631 -1.54804776 593.54150306 -1.51865196 587.80004883 C-1.47502606 579.26277651 -1.46014127 570.72562324 -1.45115814 562.18825282 C-1.43523242 547.82705112 -1.39597893 533.46600153 -1.34345436 519.10489082 C-1.29152068 504.8845191 -1.24994065 490.66417926 -1.22220421 476.44373894 C-1.22047416 475.55973087 -1.21874412 474.6757228 -1.21696165 473.76492661 C-1.20822963 469.27554094 -1.19968274 464.78615494 -1.19120713 460.29676878 C-1.13083309 428.49408702 -1.04722096 396.69150454 -0.94995117 364.88891602 C-0.85550497 333.99212796 -0.77157952 303.09534061 -0.7019043 272.19848633 C-0.69975261 271.24619934 -0.69760092 270.29391235 -0.69538403 269.31276818 C-0.67378764 259.7495568 -0.65240521 250.18634495 -0.63117954 240.62313274 C-0.5879351 221.14156948 -0.54326252 201.66000958 -0.49772644 182.17845154 C-0.4956345 181.28271063 -0.49354256 180.38696973 -0.49138723 179.46408516 C-0.35151486 119.64265976 -0.17835067 59.82132155 0 0 Z " fill="#EFBBB7" transform="translate(682,371)"/>
<path d="M0 0 C0.99 0.99 0.99 0.99 2 2 C-2.76633481 8.66710882 -7.65718646 15.23218882 -12.625 21.75 C-13.43167114 22.81238892 -13.43167114 22.81238892 -14.25463867 23.89624023 C-17.25066152 27.8138344 -20.34313325 31.60542909 -23.57568359 35.32958984 C-25.81606403 37.95706378 -27.9100026 40.68991907 -30 43.4375 C-30.43513916 44.00605713 -30.87027832 44.57461426 -31.31860352 45.16040039 C-33.54380185 48.07218872 -35.75088851 50.99666599 -37.9375 53.9375 C-40.70866196 57.65337626 -43.57095706 61.29511211 -46.4375 64.9375 C-46.91501709 65.5444873 -47.39253418 66.15147461 -47.88452148 66.77685547 C-49.97276278 69.42967015 -52.06361618 72.08029673 -54.16015625 74.7265625 C-57.53789368 79.00097092 -57.53789368 79.00097092 -60.5 83.5625 C-62.43603646 86.70855924 -64.85170153 89.28199274 -67.30859375 92.03125 C-69.46055997 94.53607904 -71.1952139 97.23642128 -73 100 C-74.59038012 102.11903833 -76.22167357 104.20164287 -77.86328125 106.28125 C-79.52402455 108.39437127 -81.16333563 110.51931456 -82.79296875 112.65625 C-83.77854358 113.93757866 -84.76422068 115.21882866 -85.75 116.5 C-86.22187744 117.12390625 -86.69375488 117.7478125 -87.17993164 118.390625 C-90.66102185 122.88700728 -90.66102185 122.88700728 -94 124 C-94 123.01 -94 122.02 -94 121 C-93.34 121 -92.68 121 -92 121 C-92 120.34 -92 119.68 -92 119 C-91.01 118.505 -91.01 118.505 -90 118 C-89.67 117.01 -89.34 116.02 -89 115 C-88.34 115 -87.68 115 -87 115 C-86.7525 114.29875 -86.505 113.5975 -86.25 112.875 C-82.76377953 104.85669291 -82.76377953 104.85669291 -78.8125 102.9375 C-78.214375 102.628125 -77.61625 102.31875 -77 102 C-76.60828247 100.34608154 -76.27942455 98.67654729 -76 97 C-74.5625 94.6875 -74.5625 94.6875 -73 93 C-72.34 93 -71.68 93 -71 93 C-71 92.34 -71 91.68 -71 91 C-69.66666667 89.66666667 -68.33333333 88.33333333 -67 87 C-66.29875 85.9275 -65.5975 84.855 -64.875 83.75 C-64.25625 82.8425 -63.6375 81.935 -63 81 C-62.34 81 -61.68 81 -61 81 C-60.95875 80.278125 -60.9175 79.55625 -60.875 78.8125 C-59.65572281 74.89339473 -57.16148648 73.50284346 -54 71 C-53.505 69.515 -53.505 69.515 -53 68 C-52.34 68 -51.68 68 -51 68 C-50.9175 67.4225 -50.835 66.845 -50.75 66.25 C-49.7871014 63.36130421 -48.17271168 62.10880839 -46 60 C-45.46375 59.0925 -44.9275 58.185 -44.375 57.25 C-43.92125 56.5075 -43.4675 55.765 -43 55 C-42.34 55 -41.68 55 -41 55 C-40.773125 54.29875 -40.54625 53.5975 -40.3125 52.875 C-38.41284531 48.71385162 -35.50204857 45.59730043 -32.3984375 42.296875 C-27.77460123 37.27188398 -24.31476232 31.83230019 -20.89453125 25.953125 C-19.14092123 23.21966279 -17.3396754 21.22444513 -15 19 C-14.67 18.34 -14.34 17.68 -14 17 C-13.34 17 -12.68 17 -12 17 C-11.79375 15.989375 -11.5875 14.97875 -11.375 13.9375 C-9.67414144 7.94804806 -5.1366278 3.35856433 0 0 Z " fill="#E8ACA8" transform="translate(383,368)"/>
<path d="M0 0 C0.33 0 0.66 0 1 0 C1 2.64 1 5.28 1 8 C0.01 8 -0.98 8 -2 8 C-3.20409885 9.82334969 -4.39334533 11.65800441 -5.51171875 13.53515625 C-11.63304451 23.67309997 -19.16017599 31.27862934 -28 39 C-28 35.15694844 -26.87375083 34.28740611 -24.4375 31.375 C-23.33921875 30.04082031 -23.33921875 30.04082031 -22.21875 28.6796875 C-21.4865625 27.79539062 -20.754375 26.91109375 -20 26 C-16.31657066 21.39571333 -12.78274029 16.73146726 -9.4375 11.875 C-6.52298434 7.66441304 -3.45346965 3.78237153 0 0 Z " fill="#BE332F" transform="translate(323,450)"/>
<path d="M0 0 C0.66 0.66 1.32 1.32 2 2 C-2.76633481 8.66710882 -7.65718646 15.23218882 -12.625 21.75 C-13.43167114 22.81238892 -13.43167114 22.81238892 -14.25463867 23.89624023 C-17.69646403 28.39676497 -21.27686216 32.72901305 -25 37 C-25.66 36.67 -26.32 36.34 -27 36 C-25.75698364 33.91221525 -24.50599259 31.82995936 -23.25 29.75 C-22.90195312 29.16347656 -22.55390625 28.57695312 -22.1953125 27.97265625 C-20.10732528 24.53134398 -17.91443886 21.76238118 -15 19 C-14.67 18.34 -14.34 17.68 -14 17 C-13.34 17 -12.68 17 -12 17 C-11.79375 15.989375 -11.5875 14.97875 -11.375 13.9375 C-9.67414144 7.94804806 -5.1366278 3.35856433 0 0 Z " fill="#EAAFAB" transform="translate(383,368)"/>
<path d="M0 0 C0 14.85 0 29.7 0 45 C-0.99 44.67 -1.98 44.34 -3 44 C-3 29.81 -3 15.62 -3 1 C-1 0 -1 0 0 0 Z " fill="#EFBBB7" transform="translate(652,902)"/>
<path d="M0 0 C0 13.2 0 26.4 0 40 C-0.99 39.67 -1.98 39.34 -3 39 C-3 26.46 -3 13.92 -3 1 C-1 0 -1 0 0 0 Z " fill="#EFBBB7" transform="translate(652,861)"/>
<path d="M0 0 C-0.60505485 3.18709122 -1.63061265 5.14385625 -3.625 7.6875 C-4.16382813 8.38230469 -4.70265625 9.07710938 -5.2578125 9.79296875 C-5.83273437 10.52128906 -6.40765625 11.24960937 -7 12 C-8.16721013 13.49957715 -9.33387162 14.99958149 -10.5 16.5 C-11.08136719 17.2425 -11.66273438 17.985 -12.26171875 18.75 C-14.47600498 21.61613228 -16.61397847 24.53546616 -18.73828125 27.46875 C-20 29 -20 29 -22 30 C-21.45365158 25.4106733 -20.49774982 21.91314139 -18 18 C-16.45703125 16.86328125 -16.45703125 16.86328125 -14.6875 15.75 C-10.55551052 13.07687361 -8.66673578 9.56941613 -6.359375 5.3046875 C-3.23050847 0 -3.23050847 0 0 0 Z " fill="#EAB3AF" transform="translate(289,492)"/>
<path d="M0 0 C0.99 0 1.98 0 3 0 C3.36294314 2.1026706 3.71506972 4.20721057 4.0625 6.3125 C4.25972656 7.48425781 4.45695313 8.65601563 4.66015625 9.86328125 C5 13 5 13 4 16 C3.77820215 17.89212737 3.59385985 19.78884472 3.4375 21.6875 C3.35371094 22.68136719 3.26992188 23.67523438 3.18359375 24.69921875 C3.12300781 25.45847656 3.06242188 26.21773438 3 27 C2.34 27 1.68 27 1 27 C-0.3308911 24.33821779 -0.11268993 22.31260604 -0.09765625 19.3359375 C-0.09443359 18.21445312 -0.09121094 17.09296875 -0.08789062 15.9375 C-0.07951172 14.761875 -0.07113281 13.58625 -0.0625 12.375 C-0.05798828 11.19164062 -0.05347656 10.00828125 -0.04882812 8.7890625 C-0.03701467 5.85932493 -0.02054258 2.92968728 0 0 Z " fill="#EFBCB8" transform="translate(648,369)"/>
<path d="M0 0 C4.285472 3.83829232 6.63096246 7.63269158 9.0625 12.8125 C9.38798828 13.48603516 9.71347656 14.15957031 10.04882812 14.85351562 C10.70385818 16.20897386 11.35316596 17.56721304 11.99658203 18.92822266 C12.69619562 20.37272896 13.42346066 21.80402805 14.17138672 23.22412109 C15.16915226 25.12154641 16.09113239 27.05842369 17 29 C16.67 29.66 16.34 30.32 16 31 C15.34 31 14.68 31 14 31 C13.49210938 29.98421875 12.98421875 28.9684375 12.4609375 27.921875 C12.13029297 27.26082764 11.79964844 26.59978027 11.45898438 25.91870117 C10.73294347 24.46612878 10.00769009 23.01316251 9.28320312 21.55981445 C7.5842864 18.1540878 5.87912669 14.75279988 4.1328125 11.37109375 C3.59398437 10.32050781 3.05515625 9.26992187 2.5 8.1875 C2.0153125 7.25292969 1.530625 6.31835938 1.03125 5.35546875 C0 3 0 3 0 0 Z " fill="#646567" transform="translate(711,1065)"/>
<path d="M0 0 C3.4617272 3.07377502 5.15725547 6.02370549 7 10.25 C8.70666222 14.11496025 10.43828988 17.90328705 12.4375 21.625 C14 25 14 25 13 28 C10.2783874 24.66623138 8.42251823 21.04119967 6.5625 17.1875 C4.67123034 13.31029702 2.76428475 9.48900416 0.5 5.8125 C0.005 4.884375 -0.49 3.95625 -1 3 C-0.67 2.01 -0.34 1.02 0 0 Z " fill="#626365" transform="translate(698,1037)"/>
<path d="M0 0 C0.33 0 0.66 0 1 0 C1 4.95 1 9.9 1 15 C0.67 14.34 0.34 13.68 0 13 C-0.66 13 -1.32 13 -2 13 C-6 6.25 -6 6.25 -6 4 C-4.02 3.34 -2.04 2.68 0 2 C0 1.34 0 0.68 0 0 Z " fill="#646567" transform="translate(648,952)"/>
<path d="M0 0 C0 5.61 0 11.22 0 17 C-0.99 16.67 -1.98 16.34 -3 16 C-3 11.05 -3 6.1 -3 1 C-1 0 -1 0 0 0 Z " fill="#EFBCB8" transform="translate(652,399)"/>
<path d="M0 0 C0.33 0.66 0.66 1.32 1 2 C0.401875 2.556875 -0.19625 3.11375 -0.8125 3.6875 C-3.06096128 5.89807049 -3.06096128 5.89807049 -4.5 8.5 C-6.05703273 11.09505455 -7.79334001 12.94552346 -10 15 C-10.33 14.01 -10.66 13.02 -11 12 C-8.3453287 7.13975593 -4.50381421 3.17916297 0 0 Z " fill="#EFD6D4" transform="translate(993,465)"/>
<path d="M0 0 C0.99 1.32 1.98 2.64 3 4 C2.67 4.66 2.34 5.32 2 6 C2.99 6.33 3.98 6.66 5 7 C5.94921875 8.84765625 5.94921875 8.84765625 6.6875 11.0625 C6.93886719 11.79597656 7.19023438 12.52945312 7.44921875 13.28515625 C7.63097656 13.85105469 7.81273437 14.41695312 8 15 C7.34 15 6.68 15 6 15 C5.67 13.68 5.34 12.36 5 11 C4.34 11 3.68 11 3 11 C2.49384702 9.73160474 1.99530901 8.46016898 1.5 7.1875 C1.2215625 6.47980469 0.943125 5.77210937 0.65625 5.04296875 C0 3 0 3 0 0 Z " fill="#EFBDB9" transform="translate(690,1023)"/>
</svg>
